<?xml version="1.0" encoding="UTF-8" standalone="no"?>
<svg xmlns="http://www.w3.org/2000/svg" version="1.2" baseProfile="tiny" viewBox="0.00 0.00 1773.00 1773.00">
<g fill="#ff440c">
<path d="
  M 886.35 393.81
  C 890.41 393.81 895.05 395.30 898.63 397.05
  C 900.46 397.94 903.30 400.03 907.15 403.34
  C 974.34 460.81 1073.78 545.87 1205.47 658.50
  C 1207.60 660.32 1210.09 660.69 1212.96 659.62
  C 1213.24 659.51 1213.51 659.35 1213.73 659.15
  C 1219.44 654.08 1223.43 650.43 1225.70 648.20
  C 1233.48 640.56 1240.36 631.62 1246.35 621.39
  C 1257.50 602.31 1262.01 581.08 1258.64 559.22
  C 1258.59 558.91 1258.50 558.61 1258.37 558.32
  C 1256.47 554.34 1253.59 551.81 1249.73 550.72
  C 1247.28 550.03 1245.71 549.53 1245.00 549.24
  C 1204.00 532.07 1165.40 504.75 1136.60 470.68
  C 1111.16 440.61 1094.74 406.78 1087.35 369.21
  C 1081.66 340.29 1082.01 309.62 1086.92 280.00
  C 1087.27 277.86 1089.14 273.72 1091.38 272.88
  C 1095.17 271.45 1099.84 276.47 1101.81 279.33
  C 1132.34 323.53 1175.35 361.02 1222.39 387.11
  C 1224.06 388.04 1225.83 388.58 1227.71 388.71
  C 1233.41 389.14 1232.89 383.07 1231.84 379.47
  C 1219.91 338.59 1202.34 299.64 1179.11 262.62
  C 1159.36 231.14 1135.25 202.36 1106.71 178.53
  C 1103.35 175.73 1097.63 172.73 1096.18 168.56
  C 1095.79 167.44 1096.16 166.20 1097.10 165.48
  C 1101.60 162.06 1110.75 162.03 1116.24 162.25
  C 1119.23 162.37 1125.82 163.47 1135.99 165.54
  C 1170.14 172.48 1202.74 182.95 1233.77 196.94
  C 1279.40 217.51 1322.43 247.67 1350.59 289.69
  C 1404.95 370.82 1384.64 468.26 1346.89 550.67
  C 1345.36 554.00 1344.17 558.19 1343.30 563.22
  C 1342.91 565.51 1342.89 568.87 1343.26 573.28
  C 1343.91 581.07 1343.91 588.24 1343.25 594.79
  C 1335.47 672.21 1275.76 727.77 1210.46 761.27
  C 1209.58 761.72 1208.95 762.56 1208.75 763.54
  C 1208.14 766.61 1207.83 769.77 1207.83 773.00
  C 1207.84 832.75 1207.85 863.45 1207.84 865.10
  C 1207.83 865.22 1207.85 865.34 1207.89 865.45
  C 1210.29 873.02 1223.24 870.07 1228.26 868.52
  C 1235.35 866.34 1243.02 863.58 1251.25 860.25
  C 1289.00 844.92 1324.99 825.72 1356.57 801.08
  C 1379.04 783.55 1398.86 762.75 1412.33 737.65
  C 1416.17 730.50 1417.51 721.09 1423.70 715.79
  C 1426.86 713.08 1429.55 718.62 1430.40 721.32
  C 1434.77 735.08 1435.91 749.75 1433.80 765.34
  C 1428.28 806.11 1410.78 840.97 1381.31 869.93
  C 1337.51 912.95 1275.33 932.98 1215.59 941.49
  C 1210.47 942.22 1208.04 944.20 1207.83 949.25
  C 1207.58 955.63 1206.92 962.34 1203.65 967.70
  C 1203.51 967.92 1203.41 968.18 1203.37 968.44
  C 1202.88 971.45 1204.01 973.06 1206.78 973.27
  C 1250.19 976.60 1294.52 989.95 1330.38 1014.86
  C 1362.36 1037.09 1383.67 1066.79 1394.32 1103.97
  C 1396.95 1113.14 1398.92 1123.77 1400.23 1135.86
  C 1400.86 1141.61 1401.00 1146.55 1400.66 1150.69
  C 1400.15 1156.93 1399.33 1163.83 1396.43 1168.92
  C 1389.73 1180.68 1376.69 1155.11 1374.75 1151.25
  C 1370.82 1143.46 1368.38 1137.48 1364.32 1131.14
  C 1318.91 1060.12 1235.76 1034.80 1155.35 1037.37
  C 1152.77 1037.45 1150.31 1038.17 1148.47 1039.66
  C 1147.42 1040.52 1147.17 1042.02 1147.89 1043.16
  C 1148.66 1044.36 1149.83 1045.41 1151.42 1046.32
  C 1196.45 1072.02 1227.35 1117.27 1224.37 1170.50
  C 1223.90 1179.03 1222.49 1188.21 1220.15 1198.03
  C 1219.42 1201.11 1218.49 1203.43 1217.37 1205.00
  C 1214.61 1208.85 1210.74 1213.03 1206.05 1213.66
  C 1194.90 1215.15 1186.85 1196.86 1184.31 1189.22
  C 1169.51 1144.59 1138.29 1094.22 1088.49 1083.83
  C 1080.43 1082.15 1072.17 1083.08 1063.74 1084.70
  C 1051.35 1087.09 1039.23 1090.76 1027.40 1095.72
  C 1023.27 1097.45 1020.01 1098.49 1017.62 1098.82
  C 1004.89 1100.61 992.54 1101.13 979.00 1101.30
  C 974.85 1101.36 943.96 1101.39 886.35 1101.39
  C 828.74 1101.39 797.86 1101.36 793.70 1101.31
  C 780.16 1101.13 767.81 1100.61 755.08 1098.82
  C 752.69 1098.49 749.43 1097.46 745.30 1095.72
  C 733.47 1090.76 721.35 1087.09 708.96 1084.70
  C 700.53 1083.08 692.27 1082.15 684.21 1083.83
  C 634.41 1094.22 603.19 1144.59 588.39 1189.22
  C 585.85 1196.86 577.80 1215.15 566.65 1213.66
  C 561.96 1213.03 558.09 1208.85 555.33 1205.00
  C 554.21 1203.44 553.29 1201.11 552.55 1198.03
  C 550.21 1188.21 548.81 1179.04 548.33 1170.50
  C 545.35 1117.28 576.25 1072.02 621.28 1046.32
  C 622.87 1045.42 624.04 1044.36 624.81 1043.16
  C 625.53 1042.02 625.28 1040.52 624.23 1039.66
  C 622.39 1038.17 619.93 1037.45 617.35 1037.37
  C 536.94 1034.81 453.79 1060.13 408.38 1131.15
  C 404.32 1137.49 401.88 1143.47 397.95 1151.26
  C 396.01 1155.12 382.97 1180.69 376.27 1168.93
  C 373.37 1163.84 372.55 1156.94 372.04 1150.70
  C 371.70 1146.56 371.84 1141.61 372.47 1135.87
  C 373.78 1123.78 375.75 1113.15 378.38 1103.98
  C 389.03 1066.80 410.34 1037.09 442.32 1014.87
  C 478.18 989.96 522.51 976.61 565.92 973.27
  C 568.69 973.06 569.82 971.45 569.33 968.44
  C 569.29 968.18 569.19 967.93 569.05 967.70
  C 565.78 962.34 565.12 955.63 564.87 949.25
  C 564.66 944.20 562.23 942.22 557.11 941.49
  C 497.37 932.99 435.19 912.96 391.39 869.94
  C 361.91 840.98 344.42 806.11 338.90 765.35
  C 336.79 749.76 337.92 735.09 342.30 721.33
  C 343.15 718.63 345.84 713.09 349.00 715.80
  C 355.19 721.10 356.53 730.51 360.37 737.66
  C 373.84 762.76 393.66 783.56 416.13 801.09
  C 447.71 825.73 483.70 844.93 521.45 860.26
  C 529.68 863.59 537.34 866.35 544.44 868.53
  C 549.46 870.07 562.41 873.02 564.81 865.45
  C 564.85 865.34 564.86 865.22 564.86 865.10
  C 564.85 863.46 564.85 832.76 564.87 773.00
  C 564.87 769.77 564.56 766.62 563.95 763.54
  C 563.75 762.57 563.12 761.73 562.24 761.27
  C 496.94 727.78 437.22 672.22 429.44 594.80
  C 428.78 588.24 428.78 581.07 429.43 573.29
  C 429.80 568.87 429.79 565.52 429.39 563.23
  C 428.53 558.19 427.33 554.01 425.80 550.68
  C 388.05 468.27 367.74 370.83 422.10 289.70
  C 450.26 247.68 493.29 217.52 538.92 196.95
  C 569.95 182.95 602.54 172.48 636.70 165.54
  C 646.87 163.47 653.45 162.37 656.45 162.25
  C 661.94 162.03 671.09 162.06 675.59 165.48
  C 676.53 166.20 676.90 167.44 676.51 168.56
  C 675.06 172.73 669.34 175.73 665.98 178.53
  C 637.44 202.36 613.33 231.14 593.58 262.62
  C 570.35 299.64 552.78 338.59 540.85 379.48
  C 539.80 383.08 539.28 389.15 544.98 388.72
  C 546.86 388.58 548.63 388.05 550.30 387.11
  C 597.34 361.02 640.35 323.53 670.88 279.33
  C 672.85 276.47 677.52 271.45 681.31 272.88
  C 683.55 273.72 685.42 277.86 685.77 280.00
  C 690.68 309.62 691.03 340.29 685.34 369.21
  C 677.95 406.79 661.53 440.61 636.09 470.68
  C 607.29 504.75 568.69 532.07 527.69 549.25
  C 526.99 549.54 525.41 550.03 522.96 550.73
  C 519.10 551.81 516.22 554.35 514.32 558.33
  C 514.19 558.61 514.10 558.91 514.05 559.23
  C 510.68 581.09 515.19 602.32 526.34 621.40
  C 532.33 631.63 539.21 640.57 546.99 648.21
  C 549.27 650.43 553.26 654.08 558.96 659.15
  C 559.19 659.36 559.45 659.52 559.73 659.62
  C 562.60 660.70 565.10 660.32 567.22 658.50
  C 698.91 545.87 798.35 460.81 865.54 403.34
  C 869.39 400.03 872.23 397.94 874.06 397.05
  C 877.64 395.30 882.28 393.81 886.35 393.81
  Z
  M 1140.65 694.87
  C 1085.60 647.78 1006.47 580.07 903.24 491.76
  C 901.82 490.54 900.72 489.63 899.95 489.03
  C 891.77 482.72 881.22 482.71 873.06 489.04
  C 872.06 489.82 870.96 490.72 869.75 491.75
  C 772.45 575.01 693.04 642.95 631.51 695.58
  C 631.27 695.78 631.13 696.09 631.13 696.41
  C 631.18 735.81 631.16 804.28 631.09 901.81
  C 631.08 914.55 631.58 923.14 632.60 927.58
  C 637.93 950.82 656.51 969.18 679.53 974.38
  C 683.90 975.37 692.45 975.86 705.17 975.85
  C 934.00 975.80 1055.02 975.81 1068.24 975.89
  C 1079.93 975.95 1088.06 975.44 1092.65 974.35
  C 1116.10 968.79 1133.81 951.06 1139.50 927.45
  C 1140.66 922.64 1141.15 915.30 1140.98 905.45
  C 1140.94 903.06 1140.94 833.09 1140.97 695.56
  C 1140.97 695.29 1140.85 695.04 1140.65 694.87
  Z"
/>
<path d="
  M 871.13 784.26
  C 871.04 784.34 870.93 784.39 870.79 784.39
  C 854.72 784.38 825.58 784.38 783.36 784.40
  C 783.14 784.40 782.97 784.22 782.97 784.00
  C 782.92 756.65 782.92 731.10 782.99 707.35
  C 783.00 704.75 784.20 702.25 786.61 699.85
  C 789.01 697.44 791.51 696.23 794.11 696.23
  C 817.86 696.15 843.41 696.13 870.76 696.17
  C 870.98 696.17 871.16 696.35 871.16 696.56
  C 871.16 738.78 871.16 767.93 871.18 784.00
  C 871.18 784.14 871.16 784.22 871.13 784.26
  Z"
/>
<path d="
  M 989.35 784.24
  C 989.35 784.36 989.26 784.45 989.15 784.45
  L 902.66 784.45
  C 902.43 784.45 902.24 784.26 902.24 784.03
  L 902.24 696.66
  C 902.24 696.34 902.50 696.08 902.81 696.08
  C 948.42 696.11 971.88 696.10 973.19 696.05
  C 981.55 695.78 987.41 698.28 989.27 706.63
  C 989.32 706.89 989.35 707.15 989.35 707.42
  L 989.35 784.24
  Z"
/>
<path d="
  M 871.09 902.24
  C 871.09 902.34 871.00 902.42 870.90 902.42
  C 824.41 902.40 800.37 902.41 798.77 902.45
  C 794.43 902.56 791.42 902.11 789.73 901.09
  C 784.30 897.79 782.97 893.94 783.00 887.38
  C 783.05 875.57 783.05 851.80 783.01 816.06
  C 783.01 815.81 783.21 815.61 783.46 815.61
  L 870.72 815.61
  C 870.92 815.61 871.09 815.78 871.09 815.98
  L 871.09 902.24
  Z"
/>
<path d="
  M 985.63 898.88
  C 983.26 901.25 980.80 902.44 978.24 902.45
  C 954.83 902.52 929.65 902.52 902.70 902.47
  C 902.48 902.47 902.30 902.30 902.30 902.09
  C 902.32 860.48 902.32 831.76 902.31 815.92
  C 902.31 815.79 902.33 815.70 902.36 815.66
  C 902.45 815.58 902.56 815.54 902.69 815.54
  C 918.53 815.55 947.25 815.56 988.86 815.55
  C 989.07 815.55 989.24 815.73 989.24 815.95
  C 989.29 842.90 989.27 868.08 989.20 891.49
  C 989.19 894.05 988.00 896.51 985.63 898.88
  Z"
/>
<path d="
  M 1461.74 1221.56
  C 1456.67 1225.55 1450.19 1229.80 1442.30 1234.31
  C 1429.73 1241.49 1417.80 1247.89 1406.49 1253.52
  C 1406.26 1253.64 1406.02 1253.72 1405.77 1253.77
  C 1400.62 1254.70 1395.20 1249.86 1400.32 1245.31
  C 1413.84 1233.30 1429.80 1219.40 1448.19 1203.63
  C 1448.67 1203.21 1449.26 1202.94 1449.89 1202.84
  C 1457.63 1201.57 1463.76 1210.04 1463.50 1216.98
  C 1463.44 1218.49 1463.07 1219.78 1462.38 1220.86
  C 1462.21 1221.12 1461.99 1221.36 1461.74 1221.56
  Z"
/>
<path d="
  M 412.63 1500.28
  C 405.99 1509.42 393.74 1513.85 382.88 1515.11
  C 376.27 1515.87 368.43 1516.36 362.13 1514.67
  C 347.60 1510.75 337.27 1500.17 331.26 1486.44
  C 326.32 1475.13 322.79 1463.06 320.68 1450.25
  C 317.67 1431.97 315.93 1413.55 315.46 1395.00
  C 314.90 1373.31 314.93 1347.56 315.54 1317.75
  C 315.79 1305.76 316.55 1296.51 317.82 1290.02
  C 317.95 1289.37 317.96 1288.69 317.85 1288.04
  C 313.49 1262.18 325.33 1242.10 349.38 1232.64
  C 356.15 1229.98 364.33 1228.51 373.93 1228.23
  C 384.31 1227.93 401.21 1233.45 401.21 1246.23
  C 401.21 1251.80 396.04 1254.49 390.97 1254.40
  C 386.17 1254.31 380.76 1253.63 377.73 1250.25
  C 377.49 1249.98 377.12 1249.86 376.77 1249.93
  C 375.12 1250.24 373.85 1250.15 372.98 1249.64
  C 372.64 1249.44 372.26 1249.34 371.87 1249.33
  C 364.37 1249.20 354.96 1251.29 348.92 1256.11
  C 342.32 1261.38 338.71 1272.04 337.70 1280.25
  C 336.58 1289.26 336.09 1301.08 336.86 1311.59
  C 337.21 1316.36 337.44 1322.99 337.53 1331.50
  C 337.59 1336.97 336.35 1341.45 335.04 1348.51
  C 334.44 1351.74 334.17 1355.44 334.22 1359.62
  C 334.49 1383.58 335.03 1401.87 335.85 1414.50
  C 336.80 1429.09 339.02 1443.09 342.51 1456.52
  C 344.89 1465.71 348.82 1474.09 354.30 1481.66
  C 361.85 1492.09 375.45 1497.05 387.08 1489.80
  C 392.63 1486.34 396.11 1484.15 397.52 1483.22
  C 404.59 1478.55 410.82 1479.23 416.23 1485.25
  C 416.40 1485.45 416.73 1485.36 416.79 1485.11
  C 430.43 1430.32 441.18 1375.29 449.05 1320.04
  C 451.27 1304.42 451.34 1287.12 454.36 1271.38
  C 454.81 1269.03 455.86 1266.37 457.50 1263.40
  C 457.67 1263.09 458.00 1262.89 458.35 1262.89
  C 460.98 1262.88 464.87 1262.88 470.03 1262.88
  C 474.83 1262.88 479.23 1264.12 481.93 1267.98
  C 482.60 1268.95 482.96 1270.86 482.99 1273.71
  C 483.35 1306.19 489.27 1342.13 493.13 1374.94
  C 494.78 1388.99 496.09 1401.92 497.06 1413.75
  C 497.61 1420.56 497.92 1426.58 497.98 1431.79
  C 498.08 1440.55 500.85 1447.86 501.67 1456.93
  C 501.94 1459.92 502.15 1461.77 502.28 1462.46
  C 504.85 1476.33 506.70 1486.76 507.83 1493.74
  C 508.85 1499.99 510.82 1514.12 499.96 1513.15
  C 492.71 1512.50 486.67 1510.94 486.33 1502.54
  C 485.66 1485.99 483.94 1470.51 481.17 1456.10
  C 481.13 1455.87 480.94 1455.69 480.71 1455.65
  L 445.26 1450.27
  C 444.85 1450.21 444.46 1450.48 444.38 1450.88
  C 442.18 1461.43 439.78 1475.29 437.17 1492.46
  C 436.29 1498.25 434.71 1503.09 432.44 1506.96
  C 428.55 1513.60 419.92 1512.73 414.92 1508.10
  C 412.53 1505.89 411.85 1503.33 412.88 1500.41
  C 412.90 1500.34 412.87 1500.27 412.81 1500.24
  C 412.75 1500.20 412.67 1500.22 412.63 1500.28
  Z
  M 467.66 1306.92
  C 459.64 1350.77 452.20 1392.99 446.22 1435.96
  C 446.16 1436.38 446.39 1436.78 446.78 1436.95
  C 449.52 1438.12 452.42 1438.99 455.48 1439.54
  C 462.75 1440.86 470.31 1441.79 478.15 1442.33
  C 478.31 1442.34 478.44 1442.19 478.41 1442.03
  C 477.85 1438.88 477.50 1435.52 477.47 1432.29
  C 477.16 1390.47 471.85 1348.84 467.96 1306.93
  C 467.95 1306.85 467.89 1306.80 467.81 1306.79
  C 467.74 1306.79 467.67 1306.85 467.66 1306.92
  Z"
/>
<path d="
  M 984.97 1382.31
  C 984.87 1381.58 984.81 1378.48 984.79 1373.02
  C 984.72 1353.76 985.60 1335.23 987.42 1317.42
  C 988.44 1307.48 989.54 1300.06 990.73 1295.15
  C 992.44 1288.10 994.79 1280.98 997.78 1273.79
  C 1000.76 1266.58 1005.89 1261.36 1014.27 1261.73
  C 1036.18 1262.69 1054.16 1272.03 1064.89 1291.10
  C 1075.97 1310.79 1080.19 1334.10 1080.62 1357.51
  C 1081.18 1388.10 1081.49 1405.93 1081.56 1411.00
  C 1081.80 1431.50 1080.11 1453.97 1074.99 1474.22
  C 1069.41 1496.29 1056.95 1517.02 1031.59 1516.91
  C 1021.54 1516.86 1012.56 1510.72 1006.35 1502.60
  C 1004.08 1499.63 1001.78 1495.55 999.47 1490.36
  C 994.14 1478.39 990.50 1464.85 988.57 1449.74
  C 985.94 1429.27 984.68 1412.11 984.79 1398.24
  C 984.83 1392.68 985.59 1386.94 984.97 1382.31
  Z
  M 1032.63 1501.26
  C 1044.32 1499.48 1049.02 1488.51 1052.51 1478.34
  C 1055.74 1468.95 1058.01 1458.36 1059.34 1446.57
  C 1061.70 1425.67 1062.26 1406.65 1061.02 1389.51
  C 1060.00 1375.29 1056.82 1342.96 1056.91 1321.41
  C 1056.94 1315.32 1056.55 1310.79 1055.75 1307.83
  C 1053.01 1297.67 1046.45 1287.68 1037.36 1283.68
  C 1028.87 1279.95 1018.09 1279.93 1012.85 1288.73
  C 1011.16 1291.58 1009.94 1294.53 1009.20 1297.58
  C 1006.65 1308.23 1005.66 1319.47 1006.25 1331.28
  C 1006.83 1342.99 1006.31 1353.78 1005.59 1365.50
  C 1005.18 1372.17 1004.99 1378.17 1005.04 1383.50
  C 1005.34 1418.72 1007.12 1449.10 1015.09 1480.64
  C 1017.01 1488.26 1022.12 1502.87 1032.63 1501.26
  Z"
/>
<path d="
  M 669.60 1455.60
  L 634.42 1450.27
  C 634.10 1450.22 633.80 1450.42 633.72 1450.74
  C 630.47 1464.42 628.08 1482.44 626.10 1493.82
  C 624.88 1500.82 622.10 1511.81 613.30 1511.71
  C 608.27 1511.65 602.29 1508.70 601.52 1503.22
  C 601.48 1502.93 601.50 1502.63 601.58 1502.34
  C 617.03 1443.02 629.16 1382.95 637.96 1322.12
  C 640.00 1308.01 640.43 1293.20 642.16 1279.74
  C 643.00 1273.25 643.83 1268.48 646.71 1263.37
  C 646.88 1263.08 647.19 1262.90 647.53 1262.90
  C 650.35 1262.88 652.95 1262.87 655.34 1262.88
  C 660.89 1262.89 667.48 1262.64 670.99 1267.73
  C 671.62 1268.64 671.98 1270.59 672.07 1273.60
  C 672.70 1294.60 674.62 1316.73 677.81 1340.00
  C 680.08 1356.49 682.16 1373.32 684.06 1390.50
  C 685.79 1406.22 686.82 1419.79 687.13 1431.20
  C 687.34 1438.62 688.63 1444.33 690.01 1451.14
  C 690.81 1455.07 690.80 1458.65 691.47 1462.36
  C 694.22 1477.64 696.00 1487.60 696.79 1492.24
  C 697.97 1499.22 699.93 1508.84 692.81 1512.90
  C 692.50 1513.07 692.15 1513.16 691.80 1513.17
  C 683.87 1513.24 675.88 1511.84 675.51 1502.55
  C 674.87 1486.40 673.17 1471.02 670.42 1456.39
  C 670.34 1455.98 670.01 1455.67 669.60 1455.60
  Z
  M 656.84 1306.68
  C 648.82 1350.61 641.37 1392.90 635.38 1435.95
  C 635.32 1436.37 635.55 1436.77 635.94 1436.94
  C 638.69 1438.11 641.59 1438.98 644.66 1439.53
  C 651.94 1440.85 659.51 1441.79 667.37 1442.33
  C 667.53 1442.34 667.66 1442.19 667.63 1442.03
  C 667.07 1438.87 666.71 1435.50 666.68 1432.27
  C 666.37 1390.38 661.05 1348.67 657.15 1306.69
  C 657.14 1306.62 657.08 1306.56 657.00 1306.56
  C 656.92 1306.55 656.86 1306.61 656.84 1306.68
  Z"
/>
<path d="
  M 543.69 1387.00
  C 542.94 1409.29 542.97 1431.37 543.80 1453.24
  C 544.47 1470.74 546.54 1487.29 550.01 1502.89
  C 550.08 1503.22 550.05 1503.57 549.93 1503.88
  L 546.33 1512.74
  C 546.21 1513.02 545.93 1513.21 545.62 1513.21
  L 536.32 1513.21
  C 535.98 1513.21 535.66 1513.06 535.44 1512.81
  L 531.40 1508.13
  C 531.18 1507.88 531.06 1507.56 531.07 1507.23
  C 531.65 1479.66 531.20 1450.25 529.73 1419.00
  C 528.10 1384.35 526.83 1352.35 525.92 1323.01
  C 525.41 1306.44 525.15 1291.94 525.15 1279.51
  C 525.15 1277.48 525.59 1274.97 526.47 1271.97
  C 528.06 1266.55 531.92 1264.04 537.79 1264.01
  C 556.63 1263.91 575.47 1272.37 581.07 1291.31
  C 582.25 1295.30 582.76 1301.47 582.61 1309.82
  C 582.58 1311.85 582.55 1318.08 582.54 1328.50
  C 582.52 1338.91 579.17 1348.75 573.58 1359.21
  C 567.57 1370.44 564.40 1376.37 564.07 1377.01
  C 563.92 1377.30 563.88 1377.63 563.94 1377.95
  C 566.69 1391.74 570.46 1410.92 575.25 1435.49
  C 579.31 1456.28 585.45 1477.32 595.91 1497.60
  C 597.04 1499.79 597.82 1502.43 598.25 1505.50
  C 599.52 1514.69 590.30 1519.93 583.46 1512.76
  C 581.53 1510.74 579.93 1508.35 578.65 1505.60
  C 571.47 1490.13 567.18 1474.54 563.40 1455.61
  C 558.87 1432.86 554.39 1409.34 548.31 1387.11
  C 548.19 1386.69 547.81 1386.40 547.37 1386.40
  L 544.32 1386.40
  C 543.98 1386.40 543.71 1386.66 543.69 1387.00
  Z
  M 545.38 1368.09
  C 552.07 1363.98 555.69 1355.42 557.93 1348.73
  C 564.00 1330.57 566.62 1312.02 562.48 1293.77
  C 560.42 1284.64 555.79 1278.22 545.53 1278.06
  C 545.19 1278.06 544.89 1278.27 544.78 1278.59
  C 543.93 1280.98 543.52 1283.61 543.57 1286.50
  C 543.88 1303.27 544.36 1327.02 545.02 1357.75
  C 545.11 1361.66 545.10 1365.03 545.00 1367.87
  C 545.00 1368.07 545.21 1368.19 545.38 1368.09
  Z"
/>
<path d="
  M 738.82 1304.60
  C 738.77 1304.50 738.62 1304.54 738.62 1304.65
  L 738.62 1488.72
  C 738.62 1489.02 738.70 1489.32 738.84 1489.58
  L 742.15 1495.48
  C 742.20 1495.57 742.24 1495.67 742.27 1495.78
  C 744.06 1502.70 738.89 1508.98 732.00 1509.50
  C 722.22 1510.23 719.63 1498.47 719.55 1491.24
  C 719.44 1481.00 719.16 1442.12 718.71 1374.59
  C 718.64 1363.98 718.77 1353.41 719.12 1342.90
  C 719.65 1326.65 720.61 1311.67 720.87 1296.09
  C 720.99 1288.86 721.50 1283.86 722.41 1281.09
  C 724.53 1274.62 728.26 1269.31 733.59 1265.17
  C 733.84 1264.97 734.21 1265.15 734.21 1265.47
  L 734.21 1266.22
  C 734.21 1266.57 734.55 1266.81 734.88 1266.71
  C 737.75 1265.78 740.27 1266.43 742.44 1268.65
  C 746.62 1272.91 750.34 1278.43 753.59 1285.20
  C 767.69 1314.51 777.54 1345.31 786.86 1377.66
  C 793.89 1402.05 800.86 1426.48 807.77 1450.96
  C 809.25 1456.21 811.72 1464.24 815.19 1475.05
  C 815.27 1475.28 815.61 1475.24 815.63 1475.00
  C 817.00 1460.39 818.16 1444.91 819.10 1428.56
  C 821.81 1381.60 823.05 1334.50 822.82 1287.25
  C 822.78 1279.47 820.40 1266.74 832.87 1268.18
  C 838.98 1268.88 841.94 1275.43 841.99 1280.75
  C 842.22 1303.05 841.94 1326.47 841.17 1351.00
  C 839.82 1394.33 837.98 1431.82 835.66 1463.47
  C 834.62 1477.56 833.50 1492.61 829.68 1506.44
  C 829.43 1507.33 828.73 1508.03 827.84 1508.28
  C 821.35 1510.09 809.80 1514.58 806.93 1505.03
  C 805.04 1498.73 803.93 1495.04 803.61 1493.97
  C 803.48 1493.51 803.41 1493.04 803.40 1492.56
  C 803.30 1485.05 800.65 1476.54 798.41 1469.09
  C 795.04 1457.92 791.60 1447.20 788.07 1436.94
  C 774.34 1396.95 760.26 1358.45 745.83 1321.44
  C 743.60 1315.73 741.26 1310.11 738.82 1304.60
  Z"
/>
<path d="
  M 1130.94 1304.59
  C 1130.89 1304.49 1130.74 1304.53 1130.74 1304.64
  L 1130.74 1488.71
  C 1130.74 1489.01 1130.81 1489.31 1130.96 1489.57
  L 1134.27 1495.47
  C 1134.32 1495.56 1134.36 1495.66 1134.39 1495.77
  C 1136.18 1502.69 1131.01 1508.97 1124.12 1509.49
  C 1114.34 1510.22 1111.75 1498.46 1111.67 1491.23
  C 1111.56 1480.99 1111.28 1442.11 1110.83 1374.58
  C 1110.76 1363.97 1110.89 1353.41 1111.24 1342.89
  C 1111.77 1326.64 1112.73 1311.66 1112.99 1296.08
  C 1113.11 1288.85 1113.62 1283.85 1114.53 1281.08
  C 1116.65 1274.61 1120.38 1269.30 1125.71 1265.16
  C 1125.96 1264.97 1126.33 1265.14 1126.33 1265.46
  L 1126.33 1266.21
  C 1126.33 1266.56 1126.67 1266.81 1127.00 1266.70
  C 1129.87 1265.78 1132.39 1266.42 1134.56 1268.64
  C 1138.74 1272.90 1142.46 1278.42 1145.71 1285.19
  C 1159.81 1314.50 1169.66 1345.30 1178.98 1377.65
  C 1186.00 1402.04 1192.97 1426.47 1199.89 1450.95
  C 1201.37 1456.20 1203.84 1464.23 1207.31 1475.04
  C 1207.38 1475.27 1207.72 1475.23 1207.75 1474.99
  C 1209.12 1460.38 1210.28 1444.90 1211.22 1428.55
  C 1213.92 1381.59 1215.16 1334.49 1214.94 1287.24
  C 1214.90 1279.46 1212.52 1266.73 1224.99 1268.17
  C 1231.10 1268.87 1234.06 1275.42 1234.11 1280.74
  C 1234.33 1303.04 1234.06 1326.46 1233.29 1350.99
  C 1231.93 1394.32 1230.10 1431.81 1227.78 1463.46
  C 1226.74 1477.55 1225.62 1492.60 1221.80 1506.43
  C 1221.55 1507.32 1220.85 1508.02 1219.96 1508.27
  C 1213.47 1510.08 1201.92 1514.57 1199.05 1505.02
  C 1197.15 1498.72 1196.05 1495.03 1195.73 1493.96
  C 1195.59 1493.50 1195.52 1493.03 1195.52 1492.55
  C 1195.42 1485.04 1192.77 1476.53 1190.53 1469.08
  C 1187.16 1457.91 1183.71 1447.19 1180.19 1436.93
  C 1166.45 1396.94 1152.38 1358.44 1137.95 1321.43
  C 1135.72 1315.72 1133.38 1310.11 1130.94 1304.59
  Z"
/>
<path d="
  M 946.55 1417.75
  C 945.29 1417.12 943.77 1416.78 941.99 1416.74
  C 937.90 1416.63 933.82 1416.58 929.75 1416.58
  C 924.98 1416.59 919.11 1415.01 918.42 1409.45
  C 917.41 1401.28 924.30 1396.58 931.74 1397.78
  C 932.10 1397.84 932.46 1397.86 932.83 1397.85
  C 941.98 1397.58 950.15 1398.18 957.33 1399.65
  C 963.04 1400.83 969.92 1403.71 969.03 1411.04
  C 968.30 1417.01 967.07 1423.87 965.33 1431.62
  C 964.93 1433.39 964.96 1437.60 965.41 1444.23
  C 966.02 1453.20 966.50 1462.71 966.84 1472.77
  C 967.43 1490.04 959.87 1502.11 944.17 1508.98
  C 924.67 1517.51 898.08 1512.00 886.83 1492.50
  C 878.66 1478.33 875.04 1461.09 873.65 1443.51
  C 872.78 1432.55 872.34 1424.38 872.31 1419.00
  C 872.17 1396.52 872.28 1376.76 872.63 1359.71
  C 873.06 1338.80 875.81 1320.11 880.89 1303.64
  C 884.07 1293.36 890.76 1281.05 899.72 1274.59
  C 908.36 1268.36 918.37 1265.60 929.75 1266.30
  C 932.22 1266.45 934.54 1266.94 936.71 1267.75
  C 943.11 1270.14 943.96 1277.61 939.34 1282.09
  C 935.97 1285.36 931.22 1285.83 926.18 1284.92
  C 919.95 1283.79 915.00 1286.11 911.31 1291.86
  C 905.52 1300.89 903.10 1310.52 900.95 1320.99
  C 898.52 1332.76 896.82 1344.45 895.83 1356.05
  C 893.65 1381.61 893.50 1408.03 895.45 1434.52
  C 896.36 1446.82 898.77 1458.82 902.69 1470.52
  C 906.44 1481.71 913.97 1490.91 925.69 1493.33
  C 938.29 1495.93 942.38 1481.92 944.19 1472.22
  C 947.47 1454.64 947.17 1437.46 946.94 1418.39
  C 946.94 1418.12 946.79 1417.87 946.55 1417.75
  Z"
/>
<path d="
  M 1305.75 1512.13
  L 1280.42 1512.13
  C 1279.04 1512.13 1277.75 1511.48 1276.93 1510.38
  C 1273.41 1505.67 1272.42 1497.95 1271.82 1491.97
  C 1270.90 1482.92 1270.50 1473.68 1270.63 1464.25
  C 1271.22 1419.68 1271.60 1383.80 1271.77 1356.61
  C 1271.87 1340.02 1270.82 1327.91 1269.58 1311.25
  C 1268.45 1296.08 1267.81 1285.08 1267.65 1278.27
  C 1267.60 1276.31 1268.45 1274.09 1269.56 1272.41
  C 1272.67 1267.68 1277.64 1265.63 1284.49 1266.26
  C 1302.44 1267.90 1317.46 1276.77 1328.67 1290.35
  C 1345.95 1311.29 1354.96 1335.50 1355.70 1362.99
  C 1355.89 1369.80 1354.79 1380.69 1354.91 1389.00
  C 1355.10 1401.68 1354.92 1414.95 1354.37 1428.80
  C 1353.56 1449.51 1349.05 1470.87 1336.58 1487.31
  C 1328.58 1497.85 1318.70 1506.03 1306.95 1511.84
  C 1306.58 1512.03 1306.17 1512.13 1305.75 1512.13
  Z
  M 1296.42 1492.89
  C 1296.41 1493.09 1296.58 1493.26 1296.79 1493.26
  C 1309.75 1493.10 1319.52 1483.35 1324.39 1471.88
  C 1332.59 1452.58 1335.57 1430.88 1336.28 1409.24
  C 1336.85 1392.17 1336.26 1374.68 1334.53 1356.76
  C 1333.23 1343.32 1330.67 1330.46 1326.86 1318.18
  C 1321.84 1302.01 1311.87 1286.29 1293.98 1283.56
  C 1293.66 1283.51 1293.35 1283.74 1293.31 1284.06
  C 1291.34 1299.20 1290.56 1314.68 1290.98 1330.50
  C 1292.60 1392.64 1296.72 1440.15 1296.42 1492.89
  Z"
/>
<path d="
  M 1404.67 1287.83
  C 1404.96 1307.42 1404.91 1320.73 1404.54 1327.76
  C 1404.05 1337.09 1403.66 1345.71 1403.39 1353.64
  C 1403.29 1356.48 1403.92 1358.59 1404.35 1361.41
  C 1404.40 1361.75 1404.70 1362.00 1405.05 1361.98
  C 1413.11 1361.59 1435.68 1358.18 1435.41 1371.77
  C 1435.30 1377.10 1430.59 1380.64 1425.64 1381.10
  C 1422.93 1381.35 1419.68 1381.27 1415.88 1380.85
  C 1411.75 1380.39 1409.09 1380.55 1404.87 1380.49
  C 1404.59 1380.48 1404.37 1380.71 1404.38 1380.99
  C 1404.99 1406.08 1405.05 1425.34 1404.54 1438.75
  C 1403.66 1461.92 1402.91 1476.50 1403.80 1495.10
  C 1403.82 1495.56 1404.21 1495.92 1404.67 1495.90
  C 1416.31 1495.37 1425.83 1495.11 1433.24 1495.14
  C 1438.06 1495.15 1444.41 1496.80 1445.24 1502.74
  C 1445.76 1506.44 1444.45 1509.38 1441.30 1511.55
  C 1436.52 1514.85 1431.25 1514.72 1424.35 1514.70
  C 1411.03 1514.67 1403.84 1514.68 1402.78 1514.71
  C 1397.81 1514.90 1394.26 1514.40 1392.14 1513.23
  C 1388.68 1511.32 1386.47 1508.44 1385.51 1504.57
  C 1385.40 1504.15 1385.35 1503.72 1385.36 1503.29
  C 1385.41 1489.97 1385.14 1477.79 1384.53 1466.74
  C 1383.84 1453.95 1383.39 1442.62 1383.19 1432.75
  C 1383.02 1423.90 1383.27 1409.31 1383.94 1389.00
  C 1384.96 1358.29 1385.50 1342.04 1385.57 1340.25
  C 1386.03 1327.84 1385.53 1315.25 1384.07 1302.50
  C 1383.05 1293.66 1382.77 1281.67 1387.02 1273.79
  C 1391.16 1266.10 1397.63 1266.06 1405.58 1266.90
  C 1415.37 1267.92 1424.95 1270.26 1434.31 1273.91
  C 1440.61 1276.37 1446.90 1282.16 1440.53 1289.08
  C 1438.46 1291.33 1435.95 1293.10 1433.00 1294.37
  C 1432.60 1294.55 1432.14 1294.56 1431.72 1294.41
  C 1422.79 1291.14 1413.96 1288.78 1405.24 1287.34
  C 1404.94 1287.29 1404.66 1287.53 1404.67 1287.83
  Z"
/>
<path d="
  M 424.61 1584.30
  C 424.73 1591.76 428.71 1595.98 436.51 1594.95
  C 438.82 1594.64 440.83 1594.03 442.56 1593.11
  C 442.71 1593.03 442.90 1593.10 442.95 1593.26
  L 444.91 1599.07
  C 444.96 1599.20 444.90 1599.35 444.77 1599.41
  C 440.05 1601.72 435.13 1602.45 430.00 1601.62
  C 420.91 1600.14 416.74 1593.10 416.60 1584.42
  C 416.46 1575.74 420.42 1568.58 429.45 1566.82
  C 434.55 1565.82 439.50 1566.41 444.29 1568.56
  C 444.42 1568.62 444.48 1568.77 444.44 1568.90
  L 442.66 1574.77
  C 442.61 1574.93 442.43 1575.00 442.28 1574.93
  C 440.52 1574.06 438.49 1573.51 436.17 1573.28
  C 428.35 1572.50 424.49 1576.83 424.61 1584.30
  Z"
/>
<path d="
  M 495.5837 1586.4671
  C 495.52 1594.92 488.62 1601.73 480.1672 1601.6698
  L 477.2273 1601.6493
  C 468.77 1601.59 461.97 1594.69 462.0246 1586.2328
  L 462.0563 1581.6929
  C 462.12 1573.24 469.02 1566.43 477.4728 1566.4902
  L 480.4127 1566.5107
  C 488.87 1566.57 495.67 1573.47 495.6154 1581.9272
  L 495.5837 1586.4671
  Z
  M 478.8586 1572.8602
  C 473.78 1572.83 469.64 1577.83 469.6101 1584.0119
  C 469.58 1590.20 473.67 1595.23 478.7414 1595.2598
  C 483.82 1595.29 487.96 1590.29 487.9899 1584.1081
  C 488.02 1577.92 483.93 1572.89 478.8586 1572.8602
  Z"
/>
<path d="
  M 569.33 1593.35
  C 571.79 1594.60 582.04 1597.21 583.29 1592.96
  C 585.46 1585.63 567.02 1588.08 567.17 1576.59
  C 567.32 1564.82 582.07 1564.71 589.46 1568.44
  C 589.73 1568.58 589.84 1568.89 589.73 1569.16
  L 587.65 1574.28
  C 587.56 1574.49 587.32 1574.58 587.12 1574.48
  C 584.45 1573.09 574.31 1570.63 575.15 1576.71
  C 575.20 1577.05 575.35 1577.36 575.59 1577.59
  C 576.58 1578.53 577.49 1579.15 578.32 1579.44
  C 584.01 1581.43 590.35 1583.38 591.22 1589.28
  C 593.40 1604.00 575.61 1603.44 566.97 1599.48
  C 566.66 1599.33 566.51 1598.97 566.64 1598.66
  L 568.71 1593.59
  C 568.81 1593.34 569.09 1593.23 569.33 1593.35
  Z"
/>
<path d="
  M 917.6060 1586.3793
  C 917.59 1594.83 910.72 1601.68 902.2693 1601.6625
  L 899.3293 1601.6574
  C 890.87 1601.64 884.03 1594.78 884.0461 1586.3207
  L 884.0540 1581.7807
  C 884.07 1573.33 890.94 1566.48 899.3907 1566.4975
  L 902.3307 1566.5026
  C 910.79 1566.52 917.63 1573.38 917.6139 1581.8393
  L 917.6060 1586.3793
  Z
  M 900.8491 1572.8601
  C 895.77 1572.84 891.64 1577.84 891.6201 1584.0279
  C 891.60 1590.21 895.70 1595.24 900.7709 1595.2599
  C 905.85 1595.28 909.98 1590.28 909.9999 1584.0921
  C 910.02 1577.91 905.92 1572.88 900.8491 1572.8601
  Z"
/>
<path d="
  M 964.09 1584.40
  C 963.97 1575.73 967.93 1568.57 976.96 1566.83
  C 982.05 1565.84 987.00 1566.43 991.78 1568.59
  C 991.91 1568.65 991.97 1568.79 991.93 1568.92
  L 990.14 1574.79
  C 990.10 1574.95 989.91 1575.02 989.76 1574.95
  C 988.01 1574.08 985.97 1573.53 983.66 1573.29
  C 975.85 1572.50 971.99 1576.83 972.10 1584.29
  C 972.20 1591.74 976.18 1595.96 983.97 1594.95
  C 986.27 1594.64 988.29 1594.03 990.02 1593.12
  C 990.17 1593.04 990.36 1593.11 990.41 1593.27
  L 992.36 1599.07
  C 992.40 1599.21 992.34 1599.35 992.22 1599.41
  C 987.50 1601.71 982.58 1602.44 977.45 1601.60
  C 968.38 1600.11 964.21 1593.07 964.09 1584.40
  Z"
/>
<path d="
  M 663.71 1589.20
  L 663.71 1600.90
  C 663.71 1601.04 663.60 1601.15 663.46 1601.15
  L 656.32 1601.15
  C 656.17 1601.15 656.04 1601.02 656.04 1600.87
  L 656.04 1568.13
  C 656.04 1567.78 656.29 1567.49 656.63 1567.43
  C 664.96 1566.00 681.51 1564.82 681.86 1577.57
  C 681.98 1581.98 680.05 1585.11 676.06 1586.97
  C 675.76 1587.11 675.66 1587.49 675.86 1587.75
  C 678.89 1591.70 681.55 1596.10 683.86 1600.97
  C 683.90 1601.05 683.83 1601.15 683.74 1601.15
  L 675.64 1601.15
  C 675.52 1601.15 675.40 1601.09 675.34 1600.98
  L 668.19 1589.33
  C 667.95 1588.94 667.53 1588.70 667.08 1588.70
  L 664.21 1588.70
  C 663.93 1588.70 663.71 1588.92 663.71 1589.20
  Z
  M 663.69 1573.71
  L 663.73 1582.13
  C 663.73 1582.35 663.91 1582.53 664.13 1582.52
  L 668.24 1582.50
  C 671.36 1582.49 673.88 1580.68 673.87 1578.46
  L 673.87 1577.26
  C 673.86 1575.05 671.32 1573.27 668.20 1573.28
  L 664.09 1573.30
  C 663.87 1573.31 663.69 1573.49 663.69 1573.71
  Z"
/>
<path d="
  M 834.55 1568.95
  C 834.55 1567.76 835.51 1566.79 836.70 1566.79
  L 847.86 1566.77
  C 856.98 1566.76 864.38 1573.73 864.40 1582.34
  L 864.40 1585.74
  C 864.42 1594.36 857.04 1601.36 847.92 1601.37
  L 836.76 1601.39
  C 835.57 1601.39 834.61 1600.43 834.61 1599.25
  L 834.55 1568.95
  Z
  M 842.32 1573.68
  L 842.28 1594.38
  C 842.28 1594.64 842.50 1594.86 842.76 1594.86
  L 846.92 1594.87
  C 852.18 1594.87 856.45 1590.57 856.46 1585.25
  L 856.46 1582.85
  C 856.47 1577.53 852.22 1573.21 846.96 1573.21
  L 842.80 1573.20
  C 842.53 1573.20 842.32 1573.41 842.32 1573.68
  Z"
/>
<path d="
  M 1042.16 1568.81
  C 1042.15 1567.72 1043.03 1566.83 1044.12 1566.83
  L 1055.44 1566.77
  C 1064.58 1566.72 1072.03 1573.70 1072.07 1582.36
  L 1072.09 1585.60
  C 1072.13 1594.26 1064.76 1601.32 1055.62 1601.37
  L 1044.30 1601.43
  C 1043.21 1601.43 1042.33 1600.56 1042.32 1599.47
  L 1042.16 1568.81
  Z
  M 1049.95 1573.73
  L 1049.91 1594.33
  C 1049.91 1594.63 1050.15 1594.87 1050.45 1594.87
  L 1054.51 1594.88
  C 1059.81 1594.88 1064.12 1590.60 1064.13 1585.30
  L 1064.13 1582.80
  C 1064.14 1577.51 1059.85 1573.20 1054.55 1573.20
  L 1050.49 1573.19
  C 1050.19 1573.19 1049.95 1573.43 1049.95 1573.73
  Z"
/>
<path d="
  M 1142.06 1568.84
  C 1142.05 1567.73 1142.95 1566.83 1144.05 1566.83
  L 1155.36 1566.77
  C 1164.48 1566.72 1171.91 1573.68 1171.95 1582.30
  L 1171.97 1585.66
  C 1172.01 1594.29 1164.66 1601.32 1155.54 1601.37
  L 1144.23 1601.43
  C 1143.13 1601.43 1142.23 1600.54 1142.22 1599.44
  L 1142.06 1568.84
  Z
  M 1149.85 1573.72
  L 1149.85 1594.36
  C 1149.85 1594.66 1150.09 1594.90 1150.39 1594.90
  L 1154.34 1594.90
  C 1159.69 1594.90 1164.03 1590.58 1164.03 1585.25
  L 1164.03 1582.83
  C 1164.03 1577.50 1159.69 1573.18 1154.34 1573.18
  L 1150.39 1573.18
  C 1150.09 1573.18 1149.85 1573.42 1149.85 1573.72
  Z"
/>
<path d="
  M 538.11 1586.63
  C 538.22 1586.80 538.48 1586.71 538.48 1586.51
  L 538.47 1567.41
  C 538.47 1567.21 538.64 1567.05 538.83 1567.05
  L 545.78 1567.04
  C 545.98 1567.04 546.13 1567.20 546.13 1567.39
  L 546.15 1600.84
  C 546.15 1601.01 546.00 1601.16 545.83 1601.16
  L 540.23 1601.16
  C 539.85 1601.16 539.50 1600.96 539.32 1600.63
  C 535.08 1593.05 530.25 1585.94 524.82 1579.32
  C 524.68 1579.14 524.39 1579.24 524.39 1579.47
  L 524.40 1600.82
  C 524.40 1601.01 524.24 1601.17 524.05 1601.17
  L 517.15 1601.17
  C 516.95 1601.17 516.80 1601.01 516.80 1600.81
  L 516.79 1567.59
  C 516.79 1567.30 517.03 1567.05 517.33 1567.05
  L 522.45 1567.05
  C 522.92 1567.05 523.36 1567.25 523.67 1567.60
  C 528.68 1573.23 533.49 1579.58 538.11 1586.63
  Z"
/>
<path d="
  M 622.35 1567.08
  C 628.28 1567.09 632.85 1567.08 636.07 1567.05
  C 636.29 1567.04 636.47 1567.22 636.47 1567.44
  L 636.47 1573.23
  C 636.47 1573.45 636.30 1573.62 636.08 1573.62
  L 626.58 1573.62
  C 626.36 1573.62 626.19 1573.79 626.19 1574.01
  L 626.19 1600.54
  C 626.19 1600.88 625.92 1601.15 625.59 1601.15
  C 625.33 1601.15 624.26 1601.15 622.36 1601.15
  C 620.47 1601.15 619.39 1601.15 619.14 1601.15
  C 618.80 1601.15 618.54 1600.88 618.54 1600.54
  L 618.52 1574.01
  C 618.52 1573.80 618.35 1573.62 618.13 1573.62
  L 608.63 1573.63
  C 608.41 1573.63 608.24 1573.45 608.24 1573.24
  L 608.24 1567.45
  C 608.24 1567.23 608.42 1567.05 608.64 1567.05
  C 611.85 1567.08 616.43 1567.09 622.35 1567.08
  Z"
/>
<path d="
  M 716.28 1595.16
  C 720.15 1595.17 722.44 1592.56 722.48 1588.73
  C 722.55 1581.50 722.57 1574.41 722.54 1567.45
  C 722.54 1567.24 722.71 1567.07 722.92 1567.07
  L 729.84 1567.07
  C 730.03 1567.07 730.19 1567.22 730.19 1567.41
  C 730.30 1579.55 730.26 1587.17 730.06 1590.27
  C 729.56 1598.09 723.82 1601.83 716.27 1601.82
  C 708.72 1601.82 702.99 1598.07 702.50 1590.24
  C 702.30 1587.15 702.27 1579.53 702.41 1567.39
  C 702.41 1567.20 702.57 1567.05 702.76 1567.05
  L 709.68 1567.06
  C 709.89 1567.06 710.06 1567.23 710.06 1567.44
  C 710.02 1574.40 710.03 1581.49 710.08 1588.71
  C 710.11 1592.55 712.40 1595.16 716.28 1595.16
  Z"
/>
<rect x="752.38" y="1567.05" width="7.72" height="34.10" rx="0.34"/>
<path d="
  M 803.98 1586.63
  C 804.09 1586.80 804.35 1586.71 804.35 1586.51
  L 804.35 1567.42
  C 804.35 1567.22 804.51 1567.06 804.71 1567.06
  L 811.65 1567.06
  C 811.85 1567.06 812.00 1567.22 812.00 1567.41
  L 812.00 1600.83
  C 812.00 1601.00 811.86 1601.15 811.68 1601.15
  L 806.09 1601.15
  C 805.71 1601.15 805.37 1600.95 805.18 1600.62
  C 800.95 1593.04 796.12 1585.94 790.70 1579.32
  C 790.56 1579.14 790.27 1579.24 790.27 1579.47
  L 790.27 1600.80
  C 790.27 1600.99 790.12 1601.15 789.92 1601.15
  L 783.03 1601.15
  C 782.83 1601.15 782.68 1600.99 782.68 1600.79
  L 782.68 1567.60
  C 782.68 1567.30 782.92 1567.06 783.22 1567.06
  L 788.34 1567.06
  C 788.80 1567.06 789.25 1567.26 789.56 1567.61
  C 794.56 1573.24 799.36 1579.58 803.98 1586.63
  Z"
/>
<rect x="1011.95" y="1567.05" width="7.70" height="34.10" rx="0.37"/>
<path d="
  M 1105.58 1593.79
  C 1101.63 1593.79 1099.59 1593.79 1099.46 1593.81
  C 1099.12 1593.84 1098.83 1594.07 1098.72 1594.40
  L 1096.50 1600.92
  C 1096.45 1601.05 1096.33 1601.14 1096.19 1601.14
  L 1088.67 1601.13
  C 1088.52 1601.13 1088.42 1600.99 1088.47 1600.86
  C 1092.35 1589.28 1096.73 1578.20 1101.59 1567.64
  C 1101.73 1567.32 1102.05 1567.11 1102.40 1567.10
  C 1102.78 1567.08 1103.84 1567.07 1105.59 1567.07
  C 1107.34 1567.08 1108.40 1567.08 1108.78 1567.10
  C 1109.13 1567.11 1109.45 1567.32 1109.59 1567.64
  C 1114.44 1578.21 1118.81 1589.29 1122.68 1600.88
  C 1122.73 1601.01 1122.63 1601.15 1122.48 1601.15
  L 1114.96 1601.15
  C 1114.82 1601.15 1114.70 1601.06 1114.65 1600.93
  L 1112.44 1594.41
  C 1112.33 1594.08 1112.04 1593.85 1111.70 1593.81
  C 1111.57 1593.80 1109.53 1593.79 1105.58 1593.79
  Z
  M 1100.75 1587.23
  C 1100.67 1587.44 1100.82 1587.66 1101.05 1587.66
  L 1109.87 1587.65
  C 1110.09 1587.65 1110.25 1587.42 1110.17 1587.21
  L 1105.74 1575.56
  C 1105.63 1575.29 1105.24 1575.29 1105.14 1575.56
  L 1100.75 1587.23
  Z"
/>
<path d="
  M 1205.46 1593.79
  C 1201.51 1593.79 1199.47 1593.79 1199.33 1593.80
  C 1199.00 1593.84 1198.71 1594.07 1198.60 1594.40
  L 1196.37 1600.92
  C 1196.32 1601.05 1196.20 1601.14 1196.06 1601.14
  L 1188.54 1601.12
  C 1188.39 1601.12 1188.29 1600.98 1188.34 1600.85
  C 1192.24 1589.27 1196.62 1578.19 1201.49 1567.63
  C 1201.64 1567.31 1201.95 1567.10 1202.31 1567.09
  C 1202.69 1567.07 1203.75 1567.07 1205.50 1567.07
  C 1207.25 1567.07 1208.31 1567.08 1208.69 1567.10
  C 1209.04 1567.11 1209.36 1567.32 1209.50 1567.64
  C 1214.34 1578.22 1218.70 1589.31 1222.56 1600.90
  C 1222.61 1601.03 1222.51 1601.17 1222.36 1601.17
  L 1214.84 1601.17
  C 1214.70 1601.17 1214.58 1601.08 1214.53 1600.95
  L 1212.32 1594.42
  C 1212.21 1594.09 1211.92 1593.86 1211.59 1593.82
  C 1211.45 1593.81 1209.41 1593.80 1205.46 1593.79
  Z
  M 1200.64 1587.24
  C 1200.56 1587.44 1200.71 1587.66 1200.93 1587.66
  L 1209.78 1587.64
  C 1210.00 1587.64 1210.15 1587.42 1210.07 1587.22
  L 1205.63 1575.54
  C 1205.52 1575.28 1205.15 1575.28 1205.05 1575.55
  L 1200.64 1587.24
  Z"
/>
<path d="
  M 1262.95 1586.62
  C 1263.06 1586.79 1263.32 1586.70 1263.32 1586.50
  L 1263.32 1567.42
  C 1263.32 1567.22 1263.48 1567.06 1263.68 1567.06
  L 1270.62 1567.06
  C 1270.81 1567.06 1270.97 1567.22 1270.97 1567.41
  L 1270.97 1600.81
  C 1270.97 1600.99 1270.83 1601.13 1270.65 1601.13
  L 1265.06 1601.13
  C 1264.68 1601.13 1264.34 1600.93 1264.15 1600.60
  C 1259.92 1593.03 1255.10 1585.93 1249.68 1579.31
  C 1249.54 1579.13 1249.25 1579.23 1249.25 1579.46
  L 1249.25 1600.78
  C 1249.25 1600.97 1249.09 1601.13 1248.90 1601.13
  L 1242.01 1601.13
  C 1241.82 1601.13 1241.66 1600.97 1241.66 1600.77
  L 1241.66 1567.60
  C 1241.66 1567.30 1241.90 1567.06 1242.20 1567.06
  L 1247.32 1567.06
  C 1247.78 1567.06 1248.23 1567.26 1248.54 1567.61
  C 1253.53 1573.24 1258.34 1579.57 1262.95 1586.62
  Z"
/>
<rect x="1293.57" y="1567.06" width="7.70" height="34.08" rx="0.33"/>
<path d="
  M 1337.64 1567.07
  C 1339.38 1567.07 1340.45 1567.08 1340.83 1567.10
  C 1341.18 1567.11 1341.49 1567.32 1341.64 1567.64
  C 1346.49 1578.21 1350.85 1589.28 1354.72 1600.87
  C 1354.77 1601.00 1354.67 1601.14 1354.52 1601.14
  L 1347.00 1601.14
  C 1346.86 1601.14 1346.74 1601.05 1346.69 1600.92
  L 1344.48 1594.40
  C 1344.37 1594.07 1344.08 1593.84 1343.74 1593.80
  C 1343.61 1593.79 1341.57 1593.78 1337.62 1593.78
  C 1333.67 1593.77 1331.63 1593.78 1331.50 1593.80
  C 1331.16 1593.83 1330.87 1594.06 1330.76 1594.39
  L 1328.54 1600.91
  C 1328.49 1601.04 1328.37 1601.13 1328.23 1601.13
  L 1320.71 1601.12
  C 1320.57 1601.12 1320.46 1600.98 1320.51 1600.85
  C 1324.40 1589.27 1328.77 1578.20 1333.63 1567.63
  C 1333.78 1567.32 1334.10 1567.11 1334.45 1567.09
  C 1334.83 1567.08 1335.89 1567.07 1337.64 1567.07
  Z
  M 1332.78 1587.23
  C 1332.70 1587.44 1332.86 1587.67 1333.08 1587.67
  L 1341.91 1587.65
  C 1342.14 1587.65 1342.29 1587.43 1342.21 1587.22
  L 1337.78 1575.58
  C 1337.67 1575.30 1337.28 1575.30 1337.18 1575.58
  L 1332.78 1587.23
  Z"
/>
</g>
</svg>
